<svg width="16" height="14" viewBox="0 0 16 14" fill="none" xmlns="http://www.w3.org/2000/svg">
<path d="M15.6875 3.4248H12.6562C12.4836 3.4248 12.3438 3.5647 12.3438 3.7373C12.3438 3.90991 12.4836 4.0498 12.6562 4.0498H15.375V6.6748H7.125V4.0498H9.84375C10.0164 4.0498 10.1562 3.90991 10.1562 3.7373C10.1562 3.5647 10.0164 3.4248 9.84375 3.4248H5.46521C5.78296 2.94629 5.97571 2.39746 6.02686 1.81946H6.21472C6.38733 1.81946 6.52722 1.67944 6.52722 1.50696C6.52722 1.33435 6.38733 1.19446 6.21472 1.19446H6.04089V0.987305C6.04089 0.814697 5.901 0.674805 5.72839 0.674805H1.39661C1.224 0.674805 1.08411 0.814697 1.08411 0.987305V1.19446H0.910278C0.737671 1.19446 0.597778 1.33435 0.597778 1.50696C0.597778 1.67944 0.737671 1.81946 0.910278 1.81946H1.09778C1.14856 2.39734 1.3407 2.94629 1.65759 3.4248H0.3125C0.139893 3.4248 0 3.5647 0 3.7373V13.2373C0 13.4099 0.139893 13.5498 0.3125 13.5498H15.6875C15.8601 13.5498 16 13.4099 16 13.2373V3.7373C16 3.5647 15.8601 3.4248 15.6875 3.4248ZM1.70911 1.51013V1.2998H5.41589V1.50696C5.41589 2.22266 5.15356 2.89893 4.67468 3.4248H2.44739C1.97034 2.89929 1.70911 2.22437 1.70911 1.51013ZM2.31323 4.0498H6.5V6.6748H0.625V4.0498H2.31323ZM0.625 7.2998H6.5V12.9248H0.625V7.2998ZM7.125 7.2998H10.9375V12.9248H7.125V7.2998ZM11.5625 12.9248V7.2998H15.375V12.9248H11.5625Z" fill="#BEAD8E"/>
</svg>
