<svg width="53" height="34" viewBox="0 0 53 34" fill="none" xmlns="http://www.w3.org/2000/svg">
<path d="M51.6378 15.3286H49.5399V13.8418C49.5399 13.1293 48.9603 12.5496 48.2477 12.5496H47.6871V8.6118H50.7115C51.092 8.6118 51.4353 8.4465 51.6536 8.15828C51.8717 7.87006 51.9377 7.49469 51.8343 7.12852L50.1267 1.07599C49.9559 0.4704 49.3525 0.0136719 48.7232 0.0136719H45.1003C44.471 0.0136719 43.8677 0.470297 43.6968 1.07599L41.9893 7.12862C41.886 7.49479 41.9519 7.87016 42.17 8.15838C42.3881 8.4466 42.7316 8.6119 43.1121 8.6119H46.1364V12.5497H45.5759C44.8633 12.5497 44.2837 13.1294 44.2837 13.8419V15.3287H42.4865V13.2863C42.4865 12.5737 41.9068 11.994 41.1942 11.994H20.2623C19.8341 11.994 19.4869 12.3412 19.4869 12.7694C19.4869 13.1976 19.8341 13.5447 20.2623 13.5447H40.9359V19.2809H39.8499V18.1487C39.8499 16.8661 38.8065 15.8227 37.5239 15.8227H29.4841C28.2015 15.8227 27.1581 16.8661 27.1581 18.1487V19.2809H26.094V18.1487C26.094 16.8661 25.0506 15.8227 23.7679 15.8227H15.7282C14.4455 15.8227 13.4021 16.8661 13.4021 18.1487V19.2809H11.9941V13.5447H16.7473C17.1755 13.5447 17.5226 13.1976 17.5226 12.7694C17.5226 12.3412 17.1755 11.994 16.7473 11.994H11.7357C11.0231 11.994 10.4434 12.5737 10.4434 13.2863V15.3287H8.6462V13.8421C8.6462 13.1295 8.06655 12.5498 7.35396 12.5498H6.79354V8.6118H9.81779C10.1983 8.6118 10.5417 8.4465 10.7599 8.15828C10.978 7.87006 11.044 7.49469 10.9406 7.12852L9.23308 1.07599C9.0623 0.4704 8.45888 0.0136719 7.82961 0.0136719H4.20669C3.57743 0.0136719 2.97411 0.470297 2.80322 1.07599L1.09582 7.12852C0.992541 7.49469 1.05839 7.87006 1.27652 8.15828C1.49465 8.4465 1.83808 8.6118 2.21861 8.6118H5.24286V12.5497H4.68255C3.96996 12.5497 3.39031 13.1294 3.39031 13.8419V15.3286H1.29224C0.579646 15.3286 0 15.9083 0 16.6209V20.1797V25.9617C0 26.6743 0.579646 27.2539 1.29224 27.2539H6.54595V32.2607C6.54595 32.9732 7.1256 33.5529 7.83819 33.5529H11.3898C12.1024 33.5529 12.682 32.9732 12.682 32.2607V29.7653H31.9441C32.3723 29.7653 32.7194 29.4182 32.7194 28.99C32.7194 28.5618 32.3723 28.2146 31.9441 28.2146H12.4236C11.711 28.2146 11.1313 28.7943 11.1313 29.5069V32.0022H8.09664V25.1544H44.8335V32.0022H41.7988V29.5069C41.7988 28.7943 41.2191 28.2146 40.5065 28.2146H35.6657C35.2375 28.2146 34.8904 28.5618 34.8904 28.99C34.8904 29.4182 35.2375 29.7653 35.6657 29.7653H40.2481V32.2607C40.2481 32.9732 40.8277 33.5529 41.5403 33.5529H45.0919C45.8044 33.5529 46.3842 32.9732 46.3842 32.2607V27.2539H51.6378C52.3504 27.2539 52.93 26.6743 52.93 25.9617V16.6209C52.93 15.9084 52.3504 15.3286 51.6378 15.3286ZM43.6196 7.06112L45.1703 1.56425H48.6532L50.204 7.06112H43.6196ZM45.8345 14.1004H47.9892V15.2669H45.8345V14.1004ZM28.7088 18.1487C28.7088 17.7211 29.0567 17.3734 29.4842 17.3734H37.524C37.9515 17.3734 38.2993 17.7211 38.2993 18.1487V19.2809H28.7088V18.1487ZM15.7282 17.3734H23.7679C24.1954 17.3734 24.5433 17.7211 24.5433 18.1487V19.2809H14.9528V18.1487C14.9528 17.7211 15.3007 17.3734 15.7282 17.3734ZM2.726 7.06112L4.27668 1.56436H7.75952L9.3103 7.06112H2.726ZM4.94089 14.1004H7.09551V15.2669H4.94089V14.1004ZM7.46292 21.6068V23.6596C6.9329 23.8208 6.54585 24.3138 6.54585 24.8958V25.7032H1.55068V20.955H7.55658C7.496 21.162 7.46292 21.3805 7.46292 21.6068ZM1.55068 19.4044V16.8793H10.4434V19.2808H9.78895C9.52792 19.2808 9.27712 19.3246 9.04266 19.4044H1.55068ZM43.9164 23.6037H9.01361V21.6069C9.01361 21.1795 9.36148 20.8316 9.78895 20.8316H43.1411C43.5685 20.8316 43.9164 21.1795 43.9164 21.6069V23.6037ZM51.3793 25.7032H46.3842V24.8958C46.3842 24.3138 45.9972 23.8208 45.4671 23.6596V21.6068C45.4671 21.3805 45.434 21.162 45.3734 20.955H51.3793V25.7032ZM51.3793 19.4044H43.8873C43.6529 19.3246 43.4021 19.2808 43.1411 19.2808H42.4867V16.8793H51.3793V19.4044Z" fill="#BEAD8E"/>
</svg>
